<svg xmlns="http://www.w3.org/2000/svg" id="Layer_2" data-name="Layer 2" viewBox="0 0 201 117.05"><defs><style>.cls-1{fill:#555;}.cls-2{fill:#fff;}.cls-3{fill:#c90909;}</style></defs><title>spells</title><path class="cls-1" d="M21,139s-1,24,30,32c28.83,7.44,58.34-38.49,61.63-45.22.29-.61,29.53-47,51.19-54.41.65-.22,43.46-16.21,58.18,31.63,0,0-.25-.69-.78-1.87-9.33-20.51-34.05-28.73-54.07-18.36A53.11,53.11,0,0,0,154,92c-11.69,11.69-48.35,63.55-48.76,64.14C101.44,161.61,83.84,185,60,185c0,0-19,5-31-12C29,173,21,164,21,139Z" transform="translate(-21 -68.63)"/></svg>