<svg xmlns="http://www.w3.org/2000/svg" viewBox="0 0 184 101.5"><path fill="#555" d="M216.62,164.26c.09,1,.17,2,.23,3,.1-1.66.15-3.32.15-5,0-48.6-41.19-88-92-88s-92,39.4-92,88c0,1.68,0,3.34.15,5,12.85-46,42.79-83,91.85-83,9.2,0,56,4,76,48a1.18,1.18,0,0,1-1.82,1.44A57.21,57.21,0,0,0,162,120.25c-30.38,0-55,22.83-55,51,0,1.52.09,3,.23,4.5,2.45-26.06,26-46.5,54.77-46.5s52.32,20.44,54.77,46.5c.14-1.48.23-3,.23-4.5a47.59,47.59,0,0,0-.5-6.9A.94.94,0,0,0,216.62,164.26Z" transform="translate(-33 -74.25)"/></svg>